<mxfile host="app.diagrams.net" modified="2024-07-25T12:51:33.130Z" agent="Mozilla/5.0 (Macintosh; Intel Mac OS X 10_15_7) AppleWebKit/537.36 (KHTML, like Gecko) Chrome/126.0.0.0 Safari/537.36" etag="K1K8S3Qvb9pOqsusoEjk" version="24.7.3" type="github" pages="2">
  <diagram name="UML" id="tvKlRdbiHkM0xLtVFmX2">
    <mxGraphModel dx="4095" dy="3415" grid="1" gridSize="10" guides="1" tooltips="1" connect="1" arrows="1" fold="1" page="1" pageScale="1" pageWidth="850" pageHeight="1100" math="0" shadow="0">
      <root>
        <mxCell id="0" />
        <mxCell id="1" parent="0" />
        <mxCell id="t4_XBRvE7li1yoZh2KQ6-1" value="User" style="swimlane;fontStyle=0;childLayout=stackLayout;horizontal=1;startSize=26;fillColor=none;horizontalStack=0;resizeParent=1;resizeParentMax=0;resizeLast=0;collapsible=1;marginBottom=0;whiteSpace=wrap;html=1;" parent="1" vertex="1">
          <mxGeometry x="20" y="120" width="170" height="138" as="geometry" />
        </mxCell>
        <mxCell id="t4_XBRvE7li1yoZh2KQ6-9" value="id: int" style="text;strokeColor=none;fillColor=none;align=left;verticalAlign=top;spacingLeft=4;spacingRight=4;overflow=hidden;rotatable=0;points=[[0,0.5],[1,0.5]];portConstraint=eastwest;whiteSpace=wrap;html=1;" parent="t4_XBRvE7li1yoZh2KQ6-1" vertex="1">
          <mxGeometry y="26" width="170" height="26" as="geometry" />
        </mxCell>
        <mxCell id="t4_XBRvE7li1yoZh2KQ6-2" value="username: int" style="text;strokeColor=none;fillColor=none;align=left;verticalAlign=top;spacingLeft=4;spacingRight=4;overflow=hidden;rotatable=0;points=[[0,0.5],[1,0.5]];portConstraint=eastwest;whiteSpace=wrap;html=1;" parent="t4_XBRvE7li1yoZh2KQ6-1" vertex="1">
          <mxGeometry y="52" width="170" height="26" as="geometry" />
        </mxCell>
        <mxCell id="t4_XBRvE7li1yoZh2KQ6-3" value="password: int" style="text;strokeColor=none;fillColor=none;align=left;verticalAlign=top;spacingLeft=4;spacingRight=4;overflow=hidden;rotatable=0;points=[[0,0.5],[1,0.5]];portConstraint=eastwest;whiteSpace=wrap;html=1;" parent="t4_XBRvE7li1yoZh2KQ6-1" vertex="1">
          <mxGeometry y="78" width="170" height="26" as="geometry" />
        </mxCell>
        <mxCell id="t4_XBRvE7li1yoZh2KQ6-31" value="" style="line;strokeWidth=1;fillColor=none;align=left;verticalAlign=middle;spacingTop=-1;spacingLeft=3;spacingRight=3;rotatable=0;labelPosition=right;points=[];portConstraint=eastwest;strokeColor=inherit;" parent="t4_XBRvE7li1yoZh2KQ6-1" vertex="1">
          <mxGeometry y="104" width="170" height="8" as="geometry" />
        </mxCell>
        <mxCell id="t4_XBRvE7li1yoZh2KQ6-33" value="joinRoom(room_id: string)" style="text;strokeColor=none;fillColor=none;align=left;verticalAlign=top;spacingLeft=4;spacingRight=4;overflow=hidden;rotatable=0;points=[[0,0.5],[1,0.5]];portConstraint=eastwest;whiteSpace=wrap;html=1;" parent="t4_XBRvE7li1yoZh2KQ6-1" vertex="1">
          <mxGeometry y="112" width="170" height="26" as="geometry" />
        </mxCell>
        <mxCell id="t4_XBRvE7li1yoZh2KQ6-22" value="" style="edgeStyle=orthogonalEdgeStyle;rounded=0;orthogonalLoop=1;jettySize=auto;html=1;" parent="1" source="t4_XBRvE7li1yoZh2KQ6-5" target="t4_XBRvE7li1yoZh2KQ6-19" edge="1">
          <mxGeometry relative="1" as="geometry">
            <Array as="points">
              <mxPoint x="600" y="165" />
              <mxPoint x="600" y="165" />
            </Array>
          </mxGeometry>
        </mxCell>
        <mxCell id="t4_XBRvE7li1yoZh2KQ6-5" value="Room" style="swimlane;fontStyle=0;childLayout=stackLayout;horizontal=1;startSize=26;fillColor=none;horizontalStack=0;resizeParent=1;resizeParentMax=0;resizeLast=0;collapsible=1;marginBottom=0;whiteSpace=wrap;html=1;" parent="1" vertex="1">
          <mxGeometry x="400" y="100" width="140" height="130" as="geometry" />
        </mxCell>
        <mxCell id="t4_XBRvE7li1yoZh2KQ6-6" value="id/pin: int" style="text;strokeColor=none;fillColor=none;align=left;verticalAlign=top;spacingLeft=4;spacingRight=4;overflow=hidden;rotatable=0;points=[[0,0.5],[1,0.5]];portConstraint=eastwest;whiteSpace=wrap;html=1;" parent="t4_XBRvE7li1yoZh2KQ6-5" vertex="1">
          <mxGeometry y="26" width="140" height="26" as="geometry" />
        </mxCell>
        <mxCell id="t4_XBRvE7li1yoZh2KQ6-7" value="region?: Region" style="text;strokeColor=none;fillColor=none;align=left;verticalAlign=top;spacingLeft=4;spacingRight=4;overflow=hidden;rotatable=0;points=[[0,0.5],[1,0.5]];portConstraint=eastwest;whiteSpace=wrap;html=1;" parent="t4_XBRvE7li1yoZh2KQ6-5" vertex="1">
          <mxGeometry y="52" width="140" height="26" as="geometry" />
        </mxCell>
        <mxCell id="t4_XBRvE7li1yoZh2KQ6-25" value="hasBegun: bool" style="text;strokeColor=none;fillColor=none;align=left;verticalAlign=top;spacingLeft=4;spacingRight=4;overflow=hidden;rotatable=0;points=[[0,0.5],[1,0.5]];portConstraint=eastwest;whiteSpace=wrap;html=1;" parent="t4_XBRvE7li1yoZh2KQ6-5" vertex="1">
          <mxGeometry y="78" width="140" height="26" as="geometry" />
        </mxCell>
        <mxCell id="dO7GLoTu2S_GdjfH4N-M-1" value="isPrivate: boolean" style="text;strokeColor=none;fillColor=none;align=left;verticalAlign=top;spacingLeft=4;spacingRight=4;overflow=hidden;rotatable=0;points=[[0,0.5],[1,0.5]];portConstraint=eastwest;whiteSpace=wrap;html=1;" vertex="1" parent="t4_XBRvE7li1yoZh2KQ6-5">
          <mxGeometry y="104" width="140" height="26" as="geometry" />
        </mxCell>
        <mxCell id="t4_XBRvE7li1yoZh2KQ6-10" style="edgeStyle=orthogonalEdgeStyle;rounded=0;orthogonalLoop=1;jettySize=auto;html=1;exitX=0.004;exitY=0.153;exitDx=0;exitDy=0;exitPerimeter=0;entryX=1.002;entryY=0.066;entryDx=0;entryDy=0;entryPerimeter=0;" parent="1" source="t4_XBRvE7li1yoZh2KQ6-6" target="t4_XBRvE7li1yoZh2KQ6-1" edge="1">
          <mxGeometry relative="1" as="geometry">
            <mxPoint x="350" y="110" as="sourcePoint" />
            <mxPoint x="230" y="130" as="targetPoint" />
            <Array as="points">
              <mxPoint x="270" y="130" />
            </Array>
          </mxGeometry>
        </mxCell>
        <mxCell id="t4_XBRvE7li1yoZh2KQ6-11" value="3..*" style="edgeLabel;html=1;align=center;verticalAlign=middle;resizable=0;points=[];" parent="t4_XBRvE7li1yoZh2KQ6-10" vertex="1" connectable="0">
          <mxGeometry x="0.8533" y="-1" relative="1" as="geometry">
            <mxPoint y="-14" as="offset" />
          </mxGeometry>
        </mxCell>
        <mxCell id="t4_XBRvE7li1yoZh2KQ6-12" value="Lobby" style="swimlane;fontStyle=0;childLayout=stackLayout;horizontal=1;startSize=26;fillColor=none;horizontalStack=0;resizeParent=1;resizeParentMax=0;resizeLast=0;collapsible=1;marginBottom=0;whiteSpace=wrap;html=1;" parent="1" vertex="1">
          <mxGeometry x="400" y="290" width="140" height="78" as="geometry" />
        </mxCell>
        <mxCell id="t4_XBRvE7li1yoZh2KQ6-13" value="id: int" style="text;strokeColor=none;fillColor=none;align=left;verticalAlign=top;spacingLeft=4;spacingRight=4;overflow=hidden;rotatable=0;points=[[0,0.5],[1,0.5]];portConstraint=eastwest;whiteSpace=wrap;html=1;" parent="t4_XBRvE7li1yoZh2KQ6-12" vertex="1">
          <mxGeometry y="26" width="140" height="26" as="geometry" />
        </mxCell>
        <mxCell id="t4_XBRvE7li1yoZh2KQ6-14" value="region?: Region" style="text;strokeColor=none;fillColor=none;align=left;verticalAlign=top;spacingLeft=4;spacingRight=4;overflow=hidden;rotatable=0;points=[[0,0.5],[1,0.5]];portConstraint=eastwest;whiteSpace=wrap;html=1;" parent="t4_XBRvE7li1yoZh2KQ6-12" vertex="1">
          <mxGeometry y="52" width="140" height="26" as="geometry" />
        </mxCell>
        <mxCell id="t4_XBRvE7li1yoZh2KQ6-16" style="edgeStyle=orthogonalEdgeStyle;rounded=0;orthogonalLoop=1;jettySize=auto;html=1;entryX=0.5;entryY=1;entryDx=0;entryDy=0;" parent="1" source="t4_XBRvE7li1yoZh2KQ6-12" target="t4_XBRvE7li1yoZh2KQ6-5" edge="1">
          <mxGeometry relative="1" as="geometry">
            <mxPoint x="470" y="220" as="targetPoint" />
          </mxGeometry>
        </mxCell>
        <mxCell id="t4_XBRvE7li1yoZh2KQ6-17" value="0..*" style="edgeLabel;html=1;align=center;verticalAlign=middle;resizable=0;points=[];" parent="t4_XBRvE7li1yoZh2KQ6-16" vertex="1" connectable="0">
          <mxGeometry x="0.5734" y="-1" relative="1" as="geometry">
            <mxPoint x="19" y="-4" as="offset" />
          </mxGeometry>
        </mxCell>
        <mxCell id="t4_XBRvE7li1yoZh2KQ6-23" style="edgeStyle=orthogonalEdgeStyle;rounded=0;orthogonalLoop=1;jettySize=auto;html=1;entryX=1;entryY=0.25;entryDx=0;entryDy=0;" parent="1" source="t4_XBRvE7li1yoZh2KQ6-19" target="sBwIEqF0QA-tYoWv3viU-1" edge="1">
          <mxGeometry relative="1" as="geometry">
            <mxPoint x="60" y="30" as="targetPoint" />
            <Array as="points">
              <mxPoint x="690" y="-7" />
            </Array>
          </mxGeometry>
        </mxCell>
        <mxCell id="t4_XBRvE7li1yoZh2KQ6-24" value="3..*" style="edgeLabel;html=1;align=center;verticalAlign=middle;resizable=0;points=[];" parent="t4_XBRvE7li1yoZh2KQ6-23" vertex="1" connectable="0">
          <mxGeometry x="0.9214" y="-1" relative="1" as="geometry">
            <mxPoint x="-11" y="-12" as="offset" />
          </mxGeometry>
        </mxCell>
        <mxCell id="dLcd_yjHd52_80FCOIPf-4" value="" style="edgeStyle=orthogonalEdgeStyle;rounded=0;orthogonalLoop=1;jettySize=auto;html=1;" parent="1" source="t4_XBRvE7li1yoZh2KQ6-19" target="dLcd_yjHd52_80FCOIPf-1" edge="1">
          <mxGeometry relative="1" as="geometry" />
        </mxCell>
        <mxCell id="rSCKgtBMbusoyFdnG49U-7" value="1" style="edgeLabel;html=1;align=center;verticalAlign=middle;resizable=0;points=[];" parent="dLcd_yjHd52_80FCOIPf-4" vertex="1" connectable="0">
          <mxGeometry x="0.1684" y="-1" relative="1" as="geometry">
            <mxPoint x="-9" y="12" as="offset" />
          </mxGeometry>
        </mxCell>
        <mxCell id="t4_XBRvE7li1yoZh2KQ6-19" value="Game" style="swimlane;fontStyle=0;childLayout=stackLayout;horizontal=1;startSize=26;fillColor=none;horizontalStack=0;resizeParent=1;resizeParentMax=0;resizeLast=0;collapsible=1;marginBottom=0;whiteSpace=wrap;html=1;" parent="1" vertex="1">
          <mxGeometry x="620" y="100" width="140" height="104" as="geometry" />
        </mxCell>
        <mxCell id="t4_XBRvE7li1yoZh2KQ6-20" value="id: int" style="text;strokeColor=none;fillColor=none;align=left;verticalAlign=top;spacingLeft=4;spacingRight=4;overflow=hidden;rotatable=0;points=[[0,0.5],[1,0.5]];portConstraint=eastwest;whiteSpace=wrap;html=1;" parent="t4_XBRvE7li1yoZh2KQ6-19" vertex="1">
          <mxGeometry y="26" width="140" height="26" as="geometry" />
        </mxCell>
        <mxCell id="t4_XBRvE7li1yoZh2KQ6-26" value="options: string[]" style="text;strokeColor=none;fillColor=none;align=left;verticalAlign=top;spacingLeft=4;spacingRight=4;overflow=hidden;rotatable=0;points=[[0,0.5],[1,0.5]];portConstraint=eastwest;whiteSpace=wrap;html=1;" parent="t4_XBRvE7li1yoZh2KQ6-19" vertex="1">
          <mxGeometry y="52" width="140" height="26" as="geometry" />
        </mxCell>
        <mxCell id="rSCKgtBMbusoyFdnG49U-9" value="topics: string[]" style="text;strokeColor=none;fillColor=none;align=left;verticalAlign=top;spacingLeft=4;spacingRight=4;overflow=hidden;rotatable=0;points=[[0,0.5],[1,0.5]];portConstraint=eastwest;whiteSpace=wrap;html=1;" parent="t4_XBRvE7li1yoZh2KQ6-19" vertex="1">
          <mxGeometry y="78" width="140" height="26" as="geometry" />
        </mxCell>
        <mxCell id="dLcd_yjHd52_80FCOIPf-1" value="GameSettings" style="swimlane;fontStyle=0;childLayout=stackLayout;horizontal=1;startSize=26;fillColor=none;horizontalStack=0;resizeParent=1;resizeParentMax=0;resizeLast=0;collapsible=1;marginBottom=0;whiteSpace=wrap;html=1;" parent="1" vertex="1">
          <mxGeometry x="585" y="264" width="210" height="208" as="geometry" />
        </mxCell>
        <mxCell id="dLcd_yjHd52_80FCOIPf-2" value="id: int" style="text;strokeColor=none;fillColor=none;align=left;verticalAlign=top;spacingLeft=4;spacingRight=4;overflow=hidden;rotatable=0;points=[[0,0.5],[1,0.5]];portConstraint=eastwest;whiteSpace=wrap;html=1;" parent="dLcd_yjHd52_80FCOIPf-1" vertex="1">
          <mxGeometry y="26" width="210" height="26" as="geometry" />
        </mxCell>
        <mxCell id="dLcd_yjHd52_80FCOIPf-3" value="isOffline: bool = False" style="text;strokeColor=none;fillColor=none;align=left;verticalAlign=top;spacingLeft=4;spacingRight=4;overflow=hidden;rotatable=0;points=[[0,0.5],[1,0.5]];portConstraint=eastwest;whiteSpace=wrap;html=1;" parent="dLcd_yjHd52_80FCOIPf-1" vertex="1">
          <mxGeometry y="52" width="210" height="26" as="geometry" />
        </mxCell>
        <mxCell id="rSCKgtBMbusoyFdnG49U-1" value="gameStartWaitTime: int = 7" style="text;strokeColor=none;fillColor=none;align=left;verticalAlign=top;spacingLeft=4;spacingRight=4;overflow=hidden;rotatable=0;points=[[0,0.5],[1,0.5]];portConstraint=eastwest;whiteSpace=wrap;html=1;" parent="dLcd_yjHd52_80FCOIPf-1" vertex="1">
          <mxGeometry y="78" width="210" height="26" as="geometry" />
        </mxCell>
        <mxCell id="rSCKgtBMbusoyFdnG49U-3" value="inGameResponseWaitTime: int = 10" style="text;strokeColor=none;fillColor=none;align=left;verticalAlign=top;spacingLeft=4;spacingRight=4;overflow=hidden;rotatable=0;points=[[0,0.5],[1,0.5]];portConstraint=eastwest;whiteSpace=wrap;html=1;" parent="dLcd_yjHd52_80FCOIPf-1" vertex="1">
          <mxGeometry y="104" width="210" height="26" as="geometry" />
        </mxCell>
        <mxCell id="rSCKgtBMbusoyFdnG49U-6" value="allowInitHint: bool = False" style="text;strokeColor=none;fillColor=none;align=left;verticalAlign=top;spacingLeft=4;spacingRight=4;overflow=hidden;rotatable=0;points=[[0,0.5],[1,0.5]];portConstraint=eastwest;whiteSpace=wrap;html=1;" parent="dLcd_yjHd52_80FCOIPf-1" vertex="1">
          <mxGeometry y="130" width="210" height="26" as="geometry" />
        </mxCell>
        <mxCell id="rSCKgtBMbusoyFdnG49U-8" value="playerAmountLimit: int = 6" style="text;strokeColor=none;fillColor=none;align=left;verticalAlign=top;spacingLeft=4;spacingRight=4;overflow=hidden;rotatable=0;points=[[0,0.5],[1,0.5]];portConstraint=eastwest;whiteSpace=wrap;html=1;" parent="dLcd_yjHd52_80FCOIPf-1" vertex="1">
          <mxGeometry y="156" width="210" height="26" as="geometry" />
        </mxCell>
        <mxCell id="4yfdrG1BEtDGCXp7ecQg-1" value="impostorAmount: int = 1" style="text;strokeColor=none;fillColor=none;align=left;verticalAlign=top;spacingLeft=4;spacingRight=4;overflow=hidden;rotatable=0;points=[[0,0.5],[1,0.5]];portConstraint=eastwest;whiteSpace=wrap;html=1;" parent="dLcd_yjHd52_80FCOIPf-1" vertex="1">
          <mxGeometry y="182" width="210" height="26" as="geometry" />
        </mxCell>
        <mxCell id="sBwIEqF0QA-tYoWv3viU-1" value="InGameUser" style="swimlane;fontStyle=0;childLayout=stackLayout;horizontal=1;startSize=26;fillColor=none;horizontalStack=0;resizeParent=1;resizeParentMax=0;resizeLast=0;collapsible=1;marginBottom=0;whiteSpace=wrap;html=1;" parent="1" vertex="1">
          <mxGeometry x="-120" y="-20" width="140" height="52" as="geometry" />
        </mxCell>
        <mxCell id="sBwIEqF0QA-tYoWv3viU-2" value="isLeader: bool" style="text;strokeColor=none;fillColor=none;align=left;verticalAlign=top;spacingLeft=4;spacingRight=4;overflow=hidden;rotatable=0;points=[[0,0.5],[1,0.5]];portConstraint=eastwest;whiteSpace=wrap;html=1;" parent="sBwIEqF0QA-tYoWv3viU-1" vertex="1">
          <mxGeometry y="26" width="140" height="26" as="geometry" />
        </mxCell>
        <mxCell id="sBwIEqF0QA-tYoWv3viU-5" value="Extends" style="endArrow=block;endSize=16;endFill=0;html=1;rounded=0;entryX=0;entryY=0;entryDx=0;entryDy=0;exitX=0.464;exitY=1.063;exitDx=0;exitDy=0;exitPerimeter=0;" parent="1" source="sBwIEqF0QA-tYoWv3viU-2" target="t4_XBRvE7li1yoZh2KQ6-1" edge="1">
          <mxGeometry width="160" relative="1" as="geometry">
            <mxPoint x="-110" y="70" as="sourcePoint" />
            <mxPoint x="-140" as="targetPoint" />
          </mxGeometry>
        </mxCell>
      </root>
    </mxGraphModel>
  </diagram>
  <diagram id="1-tUcaoUMMZC6UfSjXAX" name="Flowchart">
    <mxGraphModel dx="2473" dy="1158" grid="1" gridSize="10" guides="1" tooltips="1" connect="1" arrows="1" fold="1" page="1" pageScale="1" pageWidth="850" pageHeight="1100" math="0" shadow="0">
      <root>
        <mxCell id="0" />
        <mxCell id="1" parent="0" />
        <mxCell id="dOeSvwMsZn53JSfyvZ4N-3" value="" style="edgeStyle=orthogonalEdgeStyle;rounded=0;orthogonalLoop=1;jettySize=auto;html=1;" parent="1" source="dOeSvwMsZn53JSfyvZ4N-1" target="dOeSvwMsZn53JSfyvZ4N-2" edge="1">
          <mxGeometry relative="1" as="geometry" />
        </mxCell>
        <mxCell id="dOeSvwMsZn53JSfyvZ4N-1" value="User enters home" style="rounded=1;whiteSpace=wrap;html=1;absoluteArcSize=1;arcSize=14;strokeWidth=2;" parent="1" vertex="1">
          <mxGeometry x="-290" y="80" width="130" height="50" as="geometry" />
        </mxCell>
        <mxCell id="dOeSvwMsZn53JSfyvZ4N-5" value="" style="edgeStyle=orthogonalEdgeStyle;rounded=0;orthogonalLoop=1;jettySize=auto;html=1;" parent="1" source="dOeSvwMsZn53JSfyvZ4N-2" target="dOeSvwMsZn53JSfyvZ4N-4" edge="1">
          <mxGeometry relative="1" as="geometry" />
        </mxCell>
        <mxCell id="dOeSvwMsZn53JSfyvZ4N-7" value="No" style="edgeLabel;html=1;align=center;verticalAlign=middle;resizable=0;points=[];" parent="dOeSvwMsZn53JSfyvZ4N-5" vertex="1" connectable="0">
          <mxGeometry x="-0.6387" y="-1" relative="1" as="geometry">
            <mxPoint as="offset" />
          </mxGeometry>
        </mxCell>
        <mxCell id="dOeSvwMsZn53JSfyvZ4N-9" value="" style="edgeStyle=orthogonalEdgeStyle;rounded=0;orthogonalLoop=1;jettySize=auto;html=1;" parent="1" source="dOeSvwMsZn53JSfyvZ4N-2" target="dOeSvwMsZn53JSfyvZ4N-8" edge="1">
          <mxGeometry relative="1" as="geometry" />
        </mxCell>
        <mxCell id="dOeSvwMsZn53JSfyvZ4N-10" value="Yes" style="edgeLabel;html=1;align=center;verticalAlign=middle;resizable=0;points=[];" parent="dOeSvwMsZn53JSfyvZ4N-9" vertex="1" connectable="0">
          <mxGeometry x="-0.7667" relative="1" as="geometry">
            <mxPoint as="offset" />
          </mxGeometry>
        </mxCell>
        <mxCell id="dOeSvwMsZn53JSfyvZ4N-2" value="Has account" style="rhombus;whiteSpace=wrap;html=1;rounded=1;arcSize=14;strokeWidth=2;" parent="1" vertex="1">
          <mxGeometry x="-265" y="195" width="80" height="80" as="geometry" />
        </mxCell>
        <mxCell id="dOeSvwMsZn53JSfyvZ4N-6" style="edgeStyle=orthogonalEdgeStyle;rounded=0;orthogonalLoop=1;jettySize=auto;html=1;entryX=1;entryY=0.25;entryDx=0;entryDy=0;" parent="1" source="dOeSvwMsZn53JSfyvZ4N-4" target="dOeSvwMsZn53JSfyvZ4N-1" edge="1">
          <mxGeometry relative="1" as="geometry">
            <Array as="points">
              <mxPoint x="30" y="93" />
              <mxPoint x="-95" y="93" />
            </Array>
          </mxGeometry>
        </mxCell>
        <mxCell id="dOeSvwMsZn53JSfyvZ4N-4" value="Sign up" style="whiteSpace=wrap;html=1;rounded=1;arcSize=14;strokeWidth=2;" parent="1" vertex="1">
          <mxGeometry x="-30" y="205" width="120" height="60" as="geometry" />
        </mxCell>
        <mxCell id="jO8Nkq4LV2IFCLPf0ET1-2" value="" style="edgeStyle=orthogonalEdgeStyle;rounded=0;orthogonalLoop=1;jettySize=auto;html=1;" parent="1" source="dOeSvwMsZn53JSfyvZ4N-8" target="jO8Nkq4LV2IFCLPf0ET1-1" edge="1">
          <mxGeometry relative="1" as="geometry" />
        </mxCell>
        <mxCell id="dOeSvwMsZn53JSfyvZ4N-8" value="Enter lobby" style="whiteSpace=wrap;html=1;rounded=1;arcSize=14;strokeWidth=2;" parent="1" vertex="1">
          <mxGeometry x="-510" y="380" width="120" height="60" as="geometry" />
        </mxCell>
        <mxCell id="dOeSvwMsZn53JSfyvZ4N-16" value="" style="edgeStyle=orthogonalEdgeStyle;rounded=0;orthogonalLoop=1;jettySize=auto;html=1;" parent="1" source="dOeSvwMsZn53JSfyvZ4N-13" target="dOeSvwMsZn53JSfyvZ4N-15" edge="1">
          <mxGeometry relative="1" as="geometry" />
        </mxCell>
        <mxCell id="dOeSvwMsZn53JSfyvZ4N-13" value="Type in room pin in search" style="whiteSpace=wrap;html=1;rounded=1;arcSize=14;strokeWidth=2;" parent="1" vertex="1">
          <mxGeometry x="-160" y="380" width="120" height="60" as="geometry" />
        </mxCell>
        <mxCell id="dOeSvwMsZn53JSfyvZ4N-17" style="edgeStyle=orthogonalEdgeStyle;rounded=0;orthogonalLoop=1;jettySize=auto;html=1;entryX=0.75;entryY=0;entryDx=0;entryDy=0;" parent="1" source="dOeSvwMsZn53JSfyvZ4N-15" target="dOeSvwMsZn53JSfyvZ4N-8" edge="1">
          <mxGeometry relative="1" as="geometry">
            <Array as="points">
              <mxPoint x="50" y="360" />
              <mxPoint x="-420" y="360" />
            </Array>
          </mxGeometry>
        </mxCell>
        <mxCell id="dOeSvwMsZn53JSfyvZ4N-19" value="No" style="edgeLabel;html=1;align=center;verticalAlign=middle;resizable=0;points=[];" parent="dOeSvwMsZn53JSfyvZ4N-17" vertex="1" connectable="0">
          <mxGeometry x="-0.6" y="-3" relative="1" as="geometry">
            <mxPoint as="offset" />
          </mxGeometry>
        </mxCell>
        <mxCell id="dOeSvwMsZn53JSfyvZ4N-21" value="" style="edgeStyle=orthogonalEdgeStyle;rounded=0;orthogonalLoop=1;jettySize=auto;html=1;" parent="1" source="dOeSvwMsZn53JSfyvZ4N-15" target="dOeSvwMsZn53JSfyvZ4N-20" edge="1">
          <mxGeometry relative="1" as="geometry" />
        </mxCell>
        <mxCell id="dOeSvwMsZn53JSfyvZ4N-23" value="Yes" style="edgeLabel;html=1;align=center;verticalAlign=middle;resizable=0;points=[];" parent="dOeSvwMsZn53JSfyvZ4N-21" vertex="1" connectable="0">
          <mxGeometry x="-0.3895" y="-1" relative="1" as="geometry">
            <mxPoint as="offset" />
          </mxGeometry>
        </mxCell>
        <mxCell id="dOeSvwMsZn53JSfyvZ4N-15" value="Room exists" style="rhombus;whiteSpace=wrap;html=1;rounded=1;arcSize=14;strokeWidth=2;" parent="1" vertex="1">
          <mxGeometry y="365" width="100" height="90" as="geometry" />
        </mxCell>
        <mxCell id="qHQ6yULN7SdeQFSPxP6v-6" value="" style="edgeStyle=orthogonalEdgeStyle;rounded=0;orthogonalLoop=1;jettySize=auto;html=1;" parent="1" source="dOeSvwMsZn53JSfyvZ4N-20" target="qHQ6yULN7SdeQFSPxP6v-5" edge="1">
          <mxGeometry relative="1" as="geometry" />
        </mxCell>
        <mxCell id="dOeSvwMsZn53JSfyvZ4N-20" value="Join room" style="whiteSpace=wrap;html=1;rounded=1;arcSize=14;strokeWidth=2;" parent="1" vertex="1">
          <mxGeometry x="-10" y="510" width="120" height="60" as="geometry" />
        </mxCell>
        <mxCell id="dOeSvwMsZn53JSfyvZ4N-29" value="" style="edgeStyle=orthogonalEdgeStyle;rounded=0;orthogonalLoop=1;jettySize=auto;html=1;" parent="1" source="dOeSvwMsZn53JSfyvZ4N-26" target="dOeSvwMsZn53JSfyvZ4N-28" edge="1">
          <mxGeometry relative="1" as="geometry" />
        </mxCell>
        <mxCell id="dOeSvwMsZn53JSfyvZ4N-31" value="No" style="edgeLabel;html=1;align=center;verticalAlign=middle;resizable=0;points=[];" parent="dOeSvwMsZn53JSfyvZ4N-29" vertex="1" connectable="0">
          <mxGeometry x="-0.5937" y="-2" relative="1" as="geometry">
            <mxPoint as="offset" />
          </mxGeometry>
        </mxCell>
        <mxCell id="dOeSvwMsZn53JSfyvZ4N-33" value="" style="edgeStyle=orthogonalEdgeStyle;rounded=0;orthogonalLoop=1;jettySize=auto;html=1;" parent="1" source="dOeSvwMsZn53JSfyvZ4N-26" target="dOeSvwMsZn53JSfyvZ4N-32" edge="1">
          <mxGeometry relative="1" as="geometry">
            <Array as="points">
              <mxPoint x="-80" y="885" />
              <mxPoint x="-80" y="745" />
            </Array>
          </mxGeometry>
        </mxCell>
        <mxCell id="dOeSvwMsZn53JSfyvZ4N-34" value="Yes" style="edgeLabel;html=1;align=center;verticalAlign=middle;resizable=0;points=[];" parent="dOeSvwMsZn53JSfyvZ4N-33" vertex="1" connectable="0">
          <mxGeometry x="-0.1893" y="2" relative="1" as="geometry">
            <mxPoint as="offset" />
          </mxGeometry>
        </mxCell>
        <mxCell id="dOeSvwMsZn53JSfyvZ4N-26" value="Room has 3+ members&amp;nbsp;" style="rhombus;whiteSpace=wrap;html=1;rounded=1;arcSize=14;strokeWidth=2;" parent="1" vertex="1">
          <mxGeometry x="-15" y="820" width="130" height="130" as="geometry" />
        </mxCell>
        <mxCell id="dOeSvwMsZn53JSfyvZ4N-30" style="edgeStyle=orthogonalEdgeStyle;rounded=0;orthogonalLoop=1;jettySize=auto;html=1;entryX=1;entryY=0;entryDx=0;entryDy=0;" parent="1" source="dOeSvwMsZn53JSfyvZ4N-28" target="dOeSvwMsZn53JSfyvZ4N-26" edge="1">
          <mxGeometry relative="1" as="geometry">
            <Array as="points">
              <mxPoint x="320" y="713" />
            </Array>
          </mxGeometry>
        </mxCell>
        <mxCell id="dOeSvwMsZn53JSfyvZ4N-28" value="Wait" style="whiteSpace=wrap;html=1;rounded=1;arcSize=14;strokeWidth=2;" parent="1" vertex="1">
          <mxGeometry x="260" y="730" width="120" height="60" as="geometry" />
        </mxCell>
        <mxCell id="dOeSvwMsZn53JSfyvZ4N-36" value="" style="edgeStyle=orthogonalEdgeStyle;rounded=0;orthogonalLoop=1;jettySize=auto;html=1;exitX=0;exitY=1;exitDx=0;exitDy=0;" parent="1" source="dOeSvwMsZn53JSfyvZ4N-32" target="dOeSvwMsZn53JSfyvZ4N-35" edge="1">
          <mxGeometry relative="1" as="geometry">
            <mxPoint x="-220" y="780" as="sourcePoint" />
          </mxGeometry>
        </mxCell>
        <mxCell id="dOeSvwMsZn53JSfyvZ4N-32" value="Game waiting countdown" style="whiteSpace=wrap;html=1;rounded=1;arcSize=14;strokeWidth=2;" parent="1" vertex="1">
          <mxGeometry x="-220" y="715" width="120" height="60" as="geometry" />
        </mxCell>
        <mxCell id="dOeSvwMsZn53JSfyvZ4N-38" value="" style="edgeStyle=orthogonalEdgeStyle;rounded=0;orthogonalLoop=1;jettySize=auto;html=1;exitX=0.538;exitY=0.996;exitDx=0;exitDy=0;exitPerimeter=0;" parent="1" source="dOeSvwMsZn53JSfyvZ4N-35" target="dOeSvwMsZn53JSfyvZ4N-37" edge="1">
          <mxGeometry relative="1" as="geometry" />
        </mxCell>
        <mxCell id="dOeSvwMsZn53JSfyvZ4N-35" value="Receive option, play round" style="whiteSpace=wrap;html=1;rounded=1;arcSize=14;strokeWidth=2;" parent="1" vertex="1">
          <mxGeometry x="-280" y="855" width="120" height="60" as="geometry" />
        </mxCell>
        <mxCell id="dOeSvwMsZn53JSfyvZ4N-39" style="edgeStyle=orthogonalEdgeStyle;rounded=0;orthogonalLoop=1;jettySize=auto;html=1;entryX=1;entryY=0.25;entryDx=0;entryDy=0;" parent="1" source="dOeSvwMsZn53JSfyvZ4N-37" target="dOeSvwMsZn53JSfyvZ4N-35" edge="1">
          <mxGeometry relative="1" as="geometry">
            <Array as="points">
              <mxPoint x="-100" y="870" />
            </Array>
          </mxGeometry>
        </mxCell>
        <mxCell id="dOeSvwMsZn53JSfyvZ4N-40" value="No" style="edgeLabel;html=1;align=center;verticalAlign=middle;resizable=0;points=[];" parent="dOeSvwMsZn53JSfyvZ4N-39" vertex="1" connectable="0">
          <mxGeometry x="-0.5305" y="-2" relative="1" as="geometry">
            <mxPoint as="offset" />
          </mxGeometry>
        </mxCell>
        <mxCell id="dOeSvwMsZn53JSfyvZ4N-42" value="" style="edgeStyle=orthogonalEdgeStyle;rounded=0;orthogonalLoop=1;jettySize=auto;html=1;" parent="1" source="dOeSvwMsZn53JSfyvZ4N-37" target="dOeSvwMsZn53JSfyvZ4N-41" edge="1">
          <mxGeometry relative="1" as="geometry" />
        </mxCell>
        <mxCell id="dOeSvwMsZn53JSfyvZ4N-43" value="Yes" style="edgeLabel;html=1;align=center;verticalAlign=middle;resizable=0;points=[];" parent="dOeSvwMsZn53JSfyvZ4N-42" vertex="1" connectable="0">
          <mxGeometry x="0.555" y="2" relative="1" as="geometry">
            <mxPoint as="offset" />
          </mxGeometry>
        </mxCell>
        <mxCell id="dOeSvwMsZn53JSfyvZ4N-37" value="Round exceeds limit" style="rhombus;whiteSpace=wrap;html=1;rounded=1;arcSize=14;strokeWidth=2;" parent="1" vertex="1">
          <mxGeometry x="-210" y="985" width="110" height="95" as="geometry" />
        </mxCell>
        <mxCell id="dOeSvwMsZn53JSfyvZ4N-45" value="" style="edgeStyle=orthogonalEdgeStyle;rounded=0;orthogonalLoop=1;jettySize=auto;html=1;" parent="1" source="dOeSvwMsZn53JSfyvZ4N-41" target="dOeSvwMsZn53JSfyvZ4N-44" edge="1">
          <mxGeometry relative="1" as="geometry" />
        </mxCell>
        <mxCell id="dOeSvwMsZn53JSfyvZ4N-41" value="View ending modal" style="whiteSpace=wrap;html=1;rounded=1;arcSize=14;strokeWidth=2;" parent="1" vertex="1">
          <mxGeometry x="-460" y="1002.5" width="120" height="60" as="geometry" />
        </mxCell>
        <mxCell id="dOeSvwMsZn53JSfyvZ4N-48" style="edgeStyle=orthogonalEdgeStyle;rounded=0;orthogonalLoop=1;jettySize=auto;html=1;entryX=0;entryY=0.5;entryDx=0;entryDy=0;" parent="1" source="dOeSvwMsZn53JSfyvZ4N-44" target="dOeSvwMsZn53JSfyvZ4N-20" edge="1">
          <mxGeometry relative="1" as="geometry">
            <Array as="points">
              <mxPoint x="-280" y="850" />
              <mxPoint x="-280" y="540" />
            </Array>
          </mxGeometry>
        </mxCell>
        <mxCell id="dOeSvwMsZn53JSfyvZ4N-49" value="Room" style="edgeLabel;html=1;align=center;verticalAlign=middle;resizable=0;points=[];" parent="dOeSvwMsZn53JSfyvZ4N-48" vertex="1" connectable="0">
          <mxGeometry x="-0.8631" y="-1" relative="1" as="geometry">
            <mxPoint as="offset" />
          </mxGeometry>
        </mxCell>
        <mxCell id="dOeSvwMsZn53JSfyvZ4N-44" value="Choose where to go" style="rhombus;whiteSpace=wrap;html=1;rounded=1;arcSize=14;strokeWidth=2;" parent="1" vertex="1">
          <mxGeometry x="-460" y="820" width="120" height="112.5" as="geometry" />
        </mxCell>
        <mxCell id="dOeSvwMsZn53JSfyvZ4N-46" style="edgeStyle=orthogonalEdgeStyle;rounded=0;orthogonalLoop=1;jettySize=auto;html=1;entryX=0.161;entryY=1.064;entryDx=0;entryDy=0;entryPerimeter=0;" parent="1" source="dOeSvwMsZn53JSfyvZ4N-44" target="dOeSvwMsZn53JSfyvZ4N-8" edge="1">
          <mxGeometry relative="1" as="geometry" />
        </mxCell>
        <mxCell id="dOeSvwMsZn53JSfyvZ4N-47" value="Lobby" style="edgeLabel;html=1;align=center;verticalAlign=middle;resizable=0;points=[];" parent="dOeSvwMsZn53JSfyvZ4N-46" vertex="1" connectable="0">
          <mxGeometry x="-0.8006" y="1" relative="1" as="geometry">
            <mxPoint as="offset" />
          </mxGeometry>
        </mxCell>
        <mxCell id="qHQ6yULN7SdeQFSPxP6v-3" style="edgeStyle=orthogonalEdgeStyle;rounded=0;orthogonalLoop=1;jettySize=auto;html=1;entryX=0.5;entryY=0;entryDx=0;entryDy=0;" parent="1" source="qHQ6yULN7SdeQFSPxP6v-1" target="dOeSvwMsZn53JSfyvZ4N-26" edge="1">
          <mxGeometry relative="1" as="geometry" />
        </mxCell>
        <mxCell id="qHQ6yULN7SdeQFSPxP6v-1" value="Choose Topic" style="whiteSpace=wrap;html=1;rounded=1;arcSize=14;strokeWidth=2;" parent="1" vertex="1">
          <mxGeometry x="-10" y="640" width="120" height="60" as="geometry" />
        </mxCell>
        <mxCell id="qHQ6yULN7SdeQFSPxP6v-7" style="edgeStyle=orthogonalEdgeStyle;rounded=0;orthogonalLoop=1;jettySize=auto;html=1;entryX=1;entryY=0.75;entryDx=0;entryDy=0;" parent="1" source="qHQ6yULN7SdeQFSPxP6v-5" target="qHQ6yULN7SdeQFSPxP6v-1" edge="1">
          <mxGeometry relative="1" as="geometry">
            <Array as="points">
              <mxPoint x="250" y="685" />
            </Array>
          </mxGeometry>
        </mxCell>
        <mxCell id="qHQ6yULN7SdeQFSPxP6v-8" value="Yes" style="edgeLabel;html=1;align=center;verticalAlign=middle;resizable=0;points=[];" parent="qHQ6yULN7SdeQFSPxP6v-7" vertex="1" connectable="0">
          <mxGeometry x="0.7205" relative="1" as="geometry">
            <mxPoint as="offset" />
          </mxGeometry>
        </mxCell>
        <mxCell id="qHQ6yULN7SdeQFSPxP6v-9" style="edgeStyle=orthogonalEdgeStyle;rounded=0;orthogonalLoop=1;jettySize=auto;html=1;exitX=0;exitY=1;exitDx=0;exitDy=0;entryX=0;entryY=0;entryDx=0;entryDy=0;" parent="1" source="qHQ6yULN7SdeQFSPxP6v-5" target="dOeSvwMsZn53JSfyvZ4N-26" edge="1">
          <mxGeometry relative="1" as="geometry">
            <Array as="points">
              <mxPoint x="230" y="580" />
              <mxPoint x="-50" y="580" />
              <mxPoint x="-50" y="853" />
            </Array>
          </mxGeometry>
        </mxCell>
        <mxCell id="qHQ6yULN7SdeQFSPxP6v-10" value="No" style="edgeLabel;html=1;align=center;verticalAlign=middle;resizable=0;points=[];" parent="qHQ6yULN7SdeQFSPxP6v-9" vertex="1" connectable="0">
          <mxGeometry x="-0.7423" y="-5" relative="1" as="geometry">
            <mxPoint as="offset" />
          </mxGeometry>
        </mxCell>
        <mxCell id="qHQ6yULN7SdeQFSPxP6v-5" value="Is Room Leader" style="rhombus;whiteSpace=wrap;html=1;rounded=1;arcSize=14;strokeWidth=2;" parent="1" vertex="1">
          <mxGeometry x="210" y="500" width="80" height="80" as="geometry" />
        </mxCell>
        <mxCell id="jO8Nkq4LV2IFCLPf0ET1-3" value="" style="edgeStyle=orthogonalEdgeStyle;rounded=0;orthogonalLoop=1;jettySize=auto;html=1;" parent="1" source="jO8Nkq4LV2IFCLPf0ET1-1" target="dOeSvwMsZn53JSfyvZ4N-13" edge="1">
          <mxGeometry relative="1" as="geometry" />
        </mxCell>
        <mxCell id="jO8Nkq4LV2IFCLPf0ET1-4" value="No" style="edgeLabel;html=1;align=center;verticalAlign=middle;resizable=0;points=[];" parent="jO8Nkq4LV2IFCLPf0ET1-3" vertex="1" connectable="0">
          <mxGeometry x="-0.4422" y="-3" relative="1" as="geometry">
            <mxPoint as="offset" />
          </mxGeometry>
        </mxCell>
        <mxCell id="jO8Nkq4LV2IFCLPf0ET1-6" value="" style="edgeStyle=orthogonalEdgeStyle;rounded=0;orthogonalLoop=1;jettySize=auto;html=1;entryX=0;entryY=0.25;entryDx=0;entryDy=0;" parent="1" source="jO8Nkq4LV2IFCLPf0ET1-1" target="dOeSvwMsZn53JSfyvZ4N-20" edge="1">
          <mxGeometry relative="1" as="geometry">
            <mxPoint x="-300" y="540" as="targetPoint" />
            <Array as="points">
              <mxPoint x="-300" y="525" />
            </Array>
          </mxGeometry>
        </mxCell>
        <mxCell id="jO8Nkq4LV2IFCLPf0ET1-8" value="Yes" style="edgeLabel;html=1;align=center;verticalAlign=middle;resizable=0;points=[];" parent="jO8Nkq4LV2IFCLPf0ET1-6" vertex="1" connectable="0">
          <mxGeometry x="-0.2638" y="1" relative="1" as="geometry">
            <mxPoint x="-59" y="-54" as="offset" />
          </mxGeometry>
        </mxCell>
        <mxCell id="jO8Nkq4LV2IFCLPf0ET1-1" value="Create Room" style="rhombus;whiteSpace=wrap;html=1;rounded=1;arcSize=14;strokeWidth=2;" parent="1" vertex="1">
          <mxGeometry x="-340" y="370" width="80" height="80" as="geometry" />
        </mxCell>
      </root>
    </mxGraphModel>
  </diagram>
</mxfile>
